<?xml version="1.0" encoding="utf-8"?>
<!-- Generator: Adobe Illustrator 22.1.0, SVG Export Plug-In . SVG Version: 6.00 Build 0)  -->
<svg version="1.1" xmlns="http://www.w3.org/2000/svg" xmlns:xlink="http://www.w3.org/1999/xlink" x="0px" y="0px"
	 viewBox="0 0 730.3 128.2" style="enable-background:new 0 0 730.3 128.2;" xml:space="preserve">
<style type="text/css">
	.st0{fill:#313131;}
	.st1{display:none;}
	.st2{display:inline;fill:#313131;}
</style>
<g id="Layer_1">
	<title>Logos</title>
	<g>
		<path class="st0" d="M730.2,64.4c0-13.8,0.2-27.6-0.1-41.5c-0.3-12.7-8.7-22.7-19.4-22.8c-27.5-0.2-55-0.3-82.4,0.1
			c-12.1,0.2-26.9,9.9-26.4,27.4c0.8,24.1,0.2,48.3,0.2,72.4c0,16.4,10.7,27.8,27.2,28c27,0.2,54,0.1,81,0.1
			c5.3,0,10.2-2.3,13.6-6.4c4.5-5.1,6.4-11.2,6.4-17.9C730.3,90.7,730.3,77.6,730.2,64.4L730.2,64.4z M722,102.7
			c-0.1,3.5-0.7,6.9-2,10.1c-1.9,4.7-5.6,7.3-10.9,7.2c-26.3,0-52.7,0.1-79-0.1c-12.8-0.1-19.9-7.6-19.9-20.4c0-23.5,0-47,0-70.5
			c0-13.5,7.2-20.8,21-20.9c22-0.1,44,0,66,0h8.4c11,0,16.2,5,16.4,16c0.2,13.3,0,26.7,0,40l0,0C722.1,77,722.3,89.9,722,102.7z"/>
		<path class="st0" d="M684.1,44c-7.7-0.1-13.4,3.3-18.1,10.8v-9.5h-7.5V96h7.7c0-2,0-3.8,0-5.6c0-8.2-0.3-16.3,0.2-24.5
			c0.5-9.3,6.6-14.1,16.7-13.8c7.4,0.3,10.8,4.7,11,14.2c0.1,4.3,0,8.7,0,13v16.5h7.9c0-12.2,0.5-24.2-0.2-36.1
			C701.3,49.7,694.4,44.2,684.1,44z"/>
		<path class="st0" d="M634.5,95.8h7.4V44.3h-7.4V95.8z"/>
		<path class="st0" d="M641.9,28.4h-7.4V36h7.4V28.4z"/>
	</g>
</g>
<g id="Layer_3" class="st1">
	<path class="st2" d="M328,64.4c0,13,0.3,26-0.2,39c-0.3,4.6-1.5,9.1-3.6,13.2c-2.4,4.9-7,7.5-12.7,7.5c-26.8,0-53.6,0.2-80.5-0.1
		c-14.5-0.2-23.2-9.7-23.2-24.2c0-23.5,0-47,0-70.5c0-16.1,9-25.2,25.3-25.3c17.8-0.1,35.6,0,53.5,0h21c13,0,20,6.8,20.3,19.9
		C328.2,37.4,328,50.9,328,64.4z M272.3,116c13.5,0,26.8,0.2,40.1-0.2c2,0,4.5-2.3,5.6-4.2c1.3-2.7,2-5.6,2-8.6c0.1-26,0.1-52,0-78
		c0-1.7-0.2-3.3-0.5-4.9c-1.5-6-4-8-10.2-8c-6.7,0-13.3,0-20,0c-18.5,0-37,0-55.5,0c-12.4,0-17.7,5.3-17.7,17.5c0,23.5,0,47,0,70.5
		c0,9.3,4.5,15.2,13.7,15.7c11.2,0.6,22.5,0.2,33.9,0.2v-44h-11.4v-7.9H264c0-5.4-0.1-10.2,0-15c0.1-7,4.1-12.1,10.9-12.6
		c5.7-0.4,11.4,0.4,16.9,0.6v7.9c-6.6,1-13.4-3.4-19.4,1.2v18.3h15.4v8h-15.5L272.3,116z"/>
</g>
<g id="Layer_4" class="st1">
	<path class="st2" d="M117.9,16.1c9.6,0,14.1,4.6,14.2,14c0,22.7,0,45.3,0,68c0,9.5-4.6,14-14.2,14c-34.7,0-69.3,0-104,0
		C4.7,112.1,0,107.4,0,98.3c0-22.8,0-45.7,0-68.5C0,20.7,4.7,16,13.9,16C31.3,16,100.6,16.1,117.9,16.1z M8.4,31.9
		C24.2,44.4,40,57.1,56,69.6c5.8,4.7,14.2,4.7,20,0c16-12.4,31.9-25.1,47.7-37.5c0.5-7-0.3-7.9-7-7.9H14.9
		C8.7,24.2,7.9,25.1,8.4,31.9z M7.2,102.3c0,1.5,2.4,1.7,6.4,1.7c35,0.1,69.9,0.1,104.9,0c1.7,0,6.2-0.8,6.2-1.9L89.6,69.2
		C82.4,75.3,75.7,81.1,66,81.1c-9.8,0-16.5-6.2-23.6-11.8L7.2,102.3z M8.4,90.1L36,64.1L8.4,42.3V90.1z M123.7,90V42.5L96.2,64.2
		L123.7,90z"/>
</g>
<g id="Layer_2" class="st1">
	<path class="st2" d="M525.1,63.9L525.1,63.9c0-12.7,0.2-25.3-0.1-38c-0.3-13.8-8.8-21.8-22.4-21.8h-16.5c-18.2,0-36.3-0.1-54.5,0.1
		c-16.5,0.2-26.6,10.6-26.6,27c0,23,0.1,46,0,69c0,8,3.1,14.6,9.9,18.5c4.9,2.8,10.8,5.2,16.2,5.3c24.8,0.6,49.6,0.3,74.5,0.2
		c7.6,0,13.3-3.7,16.3-10.4c1.9-4.3,2.9-8.8,3-13.5C525.3,88.2,525.1,76,525.1,63.9z M517,100.6c-0.1,11-4.7,15.4-15.5,15.4
		c-22.7,0-45.3,0.2-68-0.2c-5.1-0.1-10.1-1.6-14.4-4.3c-3.3-2.5-5.4-6.2-5.8-10.2c-0.6-16.1-0.3-32.3-0.3-49h25.7
		c-4.3,14.9-0.8,27.4,12.4,35.6c9.4,5.8,19.9,6.7,29.2-0.3c11.8-8.8,15.1-21,10.9-35.3h25.3c0.2,1.1,0.4,2.2,0.4,3.2
		C517,70.6,517,85.6,517,100.6z M445.1,62.9c-0.1-10.2,9.5-18.6,21.2-18.7c9.7,0,18.6,8.8,18.6,18.4c0,11.4-8.2,21.1-18.1,21.4
		c-11.6,0.4-21.3-8.6-21.8-20.2C445.1,63.5,445.1,63.2,445.1,62.9L445.1,62.9z M516.8,43.8h-31.7c-14.2-10.3-22.7-10.5-38.3-0.9
		c-1.1,0.7-2.4,1.1-3.7,1.1c-9.8,0.1-19.6,0-29.7,0c0-6.8-0.7-13.4,0.2-19.9c1-7,9.1-11.9,18.1-12c16.6-0.1,33.3,0,49.9,0
		c7,0,14,0,21,0c8.5,0,13.3,3.8,14,12.1C517.3,30.7,516.8,37.1,516.8,43.8L516.8,43.8z"/>
	<path class="st2" d="M497.4,32.2l7.3-0.3v-7.5h-7.3V32.2z"/>
</g>
</svg>
